<svg xmlns="http://www.w3.org/2000/svg" viewBox="0 0 300 300" xml:space="preserve"><g><path d="M150,74.9C69.9,74.9,5,150,5,150s64.9,75.1,145,75.1S295,150,295,150S230.1,74.9,150,74.9z M128.1,131.7   c0-12.1,9.8-21.9,21.9-21.9s21.9,9.8,21.9,21.9v7.8h-8v-7.8c0-7.7-6.2-13.9-13.9-13.9s-13.9,6.2-13.9,13.9v7.8h-8V131.7z M109,202   c-20.3-6.8-38.2-17.5-51.6-27c-12.8-9.1-23.1-18.2-30.1-25c15-14.4,45.1-39.9,81.9-52.1c-15.5,12.1-25.4,31-25.4,52.1   C83.8,171.1,93.7,189.9,109,202z M174.1,174.5c0,3.4-1.5,6.5-3.8,8.6c-2.1,1.9-4.8,3-7.8,3h-24.8c-3.2,0-6.1-1.3-8.3-3.4   c-2.1-2.1-3.4-5-3.4-8.3v-27h48.1V174.5z M190.8,202.1c15.5-12.1,25.4-31,25.4-52.1c0-21.1-9.9-39.9-25.2-52   c20.3,6.8,38.2,17.5,51.6,27c12.8,9.1,23.1,18.2,30.1,25C257.7,164.4,227.6,189.9,190.8,202.1z"/><path d="M158.2,179.6l-5.1-11.7c2.8-1.2,4.7-4,4.7-7.2c0-4.3-3.5-7.8-7.8-7.8s-7.8,3.5-7.8,7.8c0,3.1,1.9,5.8,4.5,7.1l-5.4,11.8   H158.2z"/></g></svg>
